<?xml version="1.0" ?>
<!-- Uploaded to: SVG Repo, www.svgrepo.com, Generator: SVG Repo Mixer Tools -->
<svg width="800px" height="800px" viewBox="0 0 512 512" id="svg2793" style="fill-rule:evenodd;clip-rule:evenodd;stroke-linejoin:round;stroke-miterlimit:2;" version="1.1" xml:space="preserve" xmlns="http://www.w3.org/2000/svg" xmlns:cc="http://creativecommons.org/ns#" xmlns:dc="http://purl.org/dc/elements/1.1/" xmlns:rdf="http://www.w3.org/1999/02/22-rdf-syntax-ns#" xmlns:serif="http://www.serif.com/" xmlns:svg="http://www.w3.org/2000/svg">
<defs id="defs2797"/>
<g id="_13-Server" style="display:inline" transform="translate(-2048,-2048)">
<g id="g2530" transform="translate(0,-5119.95)">
<path d="m 2459.07,7348.95 h -49.09 v -31 h 49.09 z m 38,120 h -45.6 v -90 h 45.6 z m -38,61 h -49.09 v -31 h 49.09 z m -310.14,-31 h 231.05 v 31 h -231.05 z m -38,-120 h 234.94 v 90 h -234.94 z m 264.94,0 h 45.6 v 90 h -45.6 z m -226.94,-61 h 231.05 v 31 h -231.05 z m -38,-120 h 234.94 v 90 h -234.94 z m 264.94,0 h 45.6 v 90 h -45.6 z m 121.2,90 h -45.6 v -90 h 45.6 z m -193.06,362 c -8.27,0 -15,-6.73 -15,-15 0,-8.27 6.73,-15 15,-15 8.27,0 15,6.73 15,15 0,8.27 -6.73,15 -15,15 m 208.06,-332 c 8.29,0 15,-6.72 15,-15 v -120 c 0,-8.29 -6.71,-15 -15,-15 h -416.14 c -8.29,0 -15,6.71 -15,15 v 120 c 0,8.28 6.71,15 15,15 h 23 v 31 h -23 c -8.29,0 -15,6.71 -15,15 v 120 c 0,8.28 6.71,15 15,15 h 23 v 46 c 0,8.28 6.71,15 15,15 h 155.08 v 32.58 c -12.77,4.53 -22.9,14.66 -27.42,27.42 h -163.61 c -8.29,0 -15,6.71 -15,15 0,8.28 6.71,15 15,15 h 163.61 c 6.19,17.46 22.86,30 42.42,30 19.55,0 36.22,-12.54 42.42,-30 h 163.61 c 8.28,0 15,-6.72 15,-15 0,-8.29 -6.72,-15 -15,-15 h -163.61 c -4.53,-12.76 -14.66,-22.89 -27.42,-27.42 v -32.58 h 155.06 c 8.29,0 15,-6.72 15,-15 v -46 h 23 c 8.29,0 15,-6.72 15,-15 v -120 c 0,-8.29 -6.71,-15 -15,-15 h -23 v -31 z" id="path2528" style="fill-rule:nonzero"/>
</g>
<g id="g2534" transform="translate(2155.75,2108)">
<path d="m 0,30 h 21.32 c 8.284,0 15,-6.716 15,-15 0,-8.284 -6.716,-15 -15,-15 H 0 c -8.284,0 -15,6.716 -15,15 0,8.284 6.716,15 15,15" id="path2532" style="fill-rule:nonzero"/>
</g>
<g id="g2538" transform="translate(2155.75,2289)">
<path d="m 0,30 h 21.32 c 8.284,0 15,-6.716 15,-15 0,-8.284 -6.716,-15 -15,-15 H 0 c -8.284,0 -15,6.716 -15,15 0,8.284 6.716,15 15,15" id="path2536" style="fill-rule:nonzero"/>
</g>
<g id="g2542" transform="translate(2238.5,2108)">
<path d="m 0,30 h 59.68 c 8.285,0 15,-6.716 15,-15 0,-8.284 -6.715,-15 -15,-15 H 0 c -8.284,0 -15,6.716 -15,15 0,8.284 6.716,15 15,15" id="path2540" style="fill-rule:nonzero"/>
</g>
<g id="g2546" transform="translate(2238.5,2289)">
<path d="m 0,30 h 59.68 c 8.285,0 15,-6.716 15,-15 0,-8.284 -6.715,-15 -15,-15 H 0 c -8.284,0 -15,6.716 -15,15 0,8.284 6.716,15 15,15" id="path2544" style="fill-rule:nonzero"/>
</g>
</g>
</svg>