<svg xmlns="http://www.w3.org/2000/svg" viewBox="0 14.649999618530273 26.25 37.25" data-asc="1.038"
    width="26.25" height="37.25">
    <defs />
    <g>
        <g>
            <g transform="translate(0, 0)">
                <path
                    fill="#34d399"
                    d="M0 51.90L0 14.65L13.55 14.65Q17.30 14.65 20.18 16.02Q23.05 17.40 24.65 20.02Q26.25 22.65 26.25 26.30Q26.25 29.90 24.63 32.50Q23 35.10 20.15 36.50Q17.30 37.90 13.55 37.90L5.90 37.90L5.90 51.90L0 51.90M5.90 32.65L13.70 32.65Q15.70 32.65 17.20 31.85Q18.70 31.05 19.55 29.62Q20.40 28.20 20.40 26.25Q20.40 24.30 19.55 22.87Q18.70 21.45 17.20 20.67Q15.70 19.90 13.70 19.90L5.90 19.90L5.90 32.65Z" />
            </g>
        </g>
    </g>
</svg>